<svg xmlns="http://www.w3.org/2000/svg" viewBox="0 0 1000 40" preserveAspectRatio="xMidYMid slice" role="img" aria-label="NestJS, Next.js, React Native, PostgreSQL, pgvector, TypeScript, Prisma, Expo, AWS, Docker, Nginx, Stripe, Socket.io, Three.js, GSAP, OpenAI, RAG pipelines, n8n, Supabase, Firebase, Tailwind, Vue, MongoDB, Unity, Figma"><defs><linearGradient id="fade" x1="0" y1="0" x2="1" y2="0"><stop offset="0" stop-color="#000"/><stop offset=".14" stop-color="#fff"/><stop offset=".86" stop-color="#fff"/><stop offset="1" stop-color="#000"/></linearGradient><mask id="m"><rect width="1000" height="40" fill="url(#fade)"/></mask></defs><g mask="url(#m)"><g font-family="'JetBrains Mono','SFMono-Regular',Menlo,Consolas,monospace" font-size="12.5" letter-spacing="1.8" fill="#8B949E"><animateTransform attributeName="transform" type="translate" from="0 0" to="-3082 0" dur="73s" repeatCount="indefinite"/><g><text x="0" y="24.5" textLength="56" lengthAdjust="spacing">NESTJS</text><rect x="83.5" y="17.5" width="5" height="5" rx="1" transform="rotate(45 86 20)" fill="#22D3EE" opacity=".9"/><text x="116" y="24.5" textLength="65" lengthAdjust="spacing">NEXT.JS</text><rect x="208.5" y="17.5" width="5" height="5" rx="1" transform="rotate(45 211 20)" fill="#818CF8" opacity=".9"/><text x="241" y="24.5" textLength="112" lengthAdjust="spacing">REACT NATIVE</text><rect x="380.5" y="17.5" width="5" height="5" rx="1" transform="rotate(45 383 20)" fill="#C084FC" opacity=".9"/><text x="413" y="24.5" textLength="93" lengthAdjust="spacing">POSTGRESQL</text><rect x="533.5" y="17.5" width="5" height="5" rx="1" transform="rotate(45 536 20)" fill="#F9A8D4" opacity=".9"/><text x="566" y="24.5" textLength="74" lengthAdjust="spacing">PGVECTOR</text><rect x="667.5" y="17.5" width="5" height="5" rx="1" transform="rotate(45 670 20)" fill="#22D3EE" opacity=".9"/><text x="700" y="24.5" textLength="93" lengthAdjust="spacing">TYPESCRIPT</text><rect x="820.5" y="17.5" width="5" height="5" rx="1" transform="rotate(45 823 20)" fill="#818CF8" opacity=".9"/><text x="853" y="24.5" textLength="56" lengthAdjust="spacing">PRISMA</text><rect x="936.5" y="17.5" width="5" height="5" rx="1" transform="rotate(45 939 20)" fill="#C084FC" opacity=".9"/><text x="969" y="24.5" textLength="37" lengthAdjust="spacing">EXPO</text><rect x="1033.5" y="17.5" width="5" height="5" rx="1" transform="rotate(45 1036 20)" fill="#F9A8D4" opacity=".9"/><text x="1066" y="24.5" textLength="28" lengthAdjust="spacing">AWS</text><rect x="1121.5" y="17.5" width="5" height="5" rx="1" transform="rotate(45 1124 20)" fill="#22D3EE" opacity=".9"/><text x="1154" y="24.5" textLength="56" lengthAdjust="spacing">DOCKER</text><rect x="1237.5" y="17.5" width="5" height="5" rx="1" transform="rotate(45 1240 20)" fill="#818CF8" opacity=".9"/><text x="1270" y="24.5" textLength="47" lengthAdjust="spacing">NGINX</text><rect x="1344.5" y="17.5" width="5" height="5" rx="1" transform="rotate(45 1347 20)" fill="#C084FC" opacity=".9"/><text x="1377" y="24.5" textLength="56" lengthAdjust="spacing">STRIPE</text><rect x="1460.5" y="17.5" width="5" height="5" rx="1" transform="rotate(45 1463 20)" fill="#F9A8D4" opacity=".9"/><text x="1493" y="24.5" textLength="84" lengthAdjust="spacing">SOCKET.IO</text><rect x="1604.5" y="17.5" width="5" height="5" rx="1" transform="rotate(45 1607 20)" fill="#22D3EE" opacity=".9"/><text x="1637" y="24.5" textLength="74" lengthAdjust="spacing">THREE.JS</text><rect x="1738.5" y="17.5" width="5" height="5" rx="1" transform="rotate(45 1741 20)" fill="#818CF8" opacity=".9"/><text x="1771" y="24.5" textLength="37" lengthAdjust="spacing">GSAP</text><rect x="1835.5" y="17.5" width="5" height="5" rx="1" transform="rotate(45 1838 20)" fill="#C084FC" opacity=".9"/><text x="1868" y="24.5" textLength="56" lengthAdjust="spacing">OPENAI</text><rect x="1951.5" y="17.5" width="5" height="5" rx="1" transform="rotate(45 1954 20)" fill="#F9A8D4" opacity=".9"/><text x="1984" y="24.5" textLength="121" lengthAdjust="spacing">RAG PIPELINES</text><rect x="2132.5" y="17.5" width="5" height="5" rx="1" transform="rotate(45 2135 20)" fill="#22D3EE" opacity=".9"/><text x="2165" y="24.5" textLength="28" lengthAdjust="spacing">N8N</text><rect x="2220.5" y="17.5" width="5" height="5" rx="1" transform="rotate(45 2223 20)" fill="#818CF8" opacity=".9"/><text x="2253" y="24.5" textLength="74" lengthAdjust="spacing">SUPABASE</text><rect x="2354.5" y="17.5" width="5" height="5" rx="1" transform="rotate(45 2357 20)" fill="#C084FC" opacity=".9"/><text x="2387" y="24.5" textLength="74" lengthAdjust="spacing">FIREBASE</text><rect x="2488.5" y="17.5" width="5" height="5" rx="1" transform="rotate(45 2491 20)" fill="#F9A8D4" opacity=".9"/><text x="2521" y="24.5" textLength="74" lengthAdjust="spacing">TAILWIND</text><rect x="2622.5" y="17.5" width="5" height="5" rx="1" transform="rotate(45 2625 20)" fill="#22D3EE" opacity=".9"/><text x="2655" y="24.5" textLength="28" lengthAdjust="spacing">VUE</text><rect x="2710.5" y="17.5" width="5" height="5" rx="1" transform="rotate(45 2713 20)" fill="#818CF8" opacity=".9"/><text x="2743" y="24.5" textLength="65" lengthAdjust="spacing">MONGODB</text><rect x="2835.5" y="17.5" width="5" height="5" rx="1" transform="rotate(45 2838 20)" fill="#C084FC" opacity=".9"/><text x="2868" y="24.5" textLength="47" lengthAdjust="spacing">UNITY</text><rect x="2942.5" y="17.5" width="5" height="5" rx="1" transform="rotate(45 2945 20)" fill="#F9A8D4" opacity=".9"/><text x="2975" y="24.5" textLength="47" lengthAdjust="spacing">FIGMA</text><rect x="3049.5" y="17.5" width="5" height="5" rx="1" transform="rotate(45 3052 20)" fill="#22D3EE" opacity=".9"/></g><g transform="translate(3082 0)"><text x="0" y="24.5" textLength="56" lengthAdjust="spacing">NESTJS</text><rect x="83.5" y="17.5" width="5" height="5" rx="1" transform="rotate(45 86 20)" fill="#22D3EE" opacity=".9"/><text x="116" y="24.5" textLength="65" lengthAdjust="spacing">NEXT.JS</text><rect x="208.5" y="17.5" width="5" height="5" rx="1" transform="rotate(45 211 20)" fill="#818CF8" opacity=".9"/><text x="241" y="24.5" textLength="112" lengthAdjust="spacing">REACT NATIVE</text><rect x="380.5" y="17.5" width="5" height="5" rx="1" transform="rotate(45 383 20)" fill="#C084FC" opacity=".9"/><text x="413" y="24.5" textLength="93" lengthAdjust="spacing">POSTGRESQL</text><rect x="533.5" y="17.5" width="5" height="5" rx="1" transform="rotate(45 536 20)" fill="#F9A8D4" opacity=".9"/><text x="566" y="24.5" textLength="74" lengthAdjust="spacing">PGVECTOR</text><rect x="667.5" y="17.5" width="5" height="5" rx="1" transform="rotate(45 670 20)" fill="#22D3EE" opacity=".9"/><text x="700" y="24.5" textLength="93" lengthAdjust="spacing">TYPESCRIPT</text><rect x="820.5" y="17.5" width="5" height="5" rx="1" transform="rotate(45 823 20)" fill="#818CF8" opacity=".9"/><text x="853" y="24.5" textLength="56" lengthAdjust="spacing">PRISMA</text><rect x="936.5" y="17.5" width="5" height="5" rx="1" transform="rotate(45 939 20)" fill="#C084FC" opacity=".9"/><text x="969" y="24.5" textLength="37" lengthAdjust="spacing">EXPO</text><rect x="1033.5" y="17.5" width="5" height="5" rx="1" transform="rotate(45 1036 20)" fill="#F9A8D4" opacity=".9"/><text x="1066" y="24.5" textLength="28" lengthAdjust="spacing">AWS</text><rect x="1121.5" y="17.5" width="5" height="5" rx="1" transform="rotate(45 1124 20)" fill="#22D3EE" opacity=".9"/><text x="1154" y="24.5" textLength="56" lengthAdjust="spacing">DOCKER</text><rect x="1237.5" y="17.5" width="5" height="5" rx="1" transform="rotate(45 1240 20)" fill="#818CF8" opacity=".9"/><text x="1270" y="24.5" textLength="47" lengthAdjust="spacing">NGINX</text><rect x="1344.5" y="17.5" width="5" height="5" rx="1" transform="rotate(45 1347 20)" fill="#C084FC" opacity=".9"/><text x="1377" y="24.5" textLength="56" lengthAdjust="spacing">STRIPE</text><rect x="1460.5" y="17.5" width="5" height="5" rx="1" transform="rotate(45 1463 20)" fill="#F9A8D4" opacity=".9"/><text x="1493" y="24.5" textLength="84" lengthAdjust="spacing">SOCKET.IO</text><rect x="1604.5" y="17.5" width="5" height="5" rx="1" transform="rotate(45 1607 20)" fill="#22D3EE" opacity=".9"/><text x="1637" y="24.5" textLength="74" lengthAdjust="spacing">THREE.JS</text><rect x="1738.5" y="17.5" width="5" height="5" rx="1" transform="rotate(45 1741 20)" fill="#818CF8" opacity=".9"/><text x="1771" y="24.5" textLength="37" lengthAdjust="spacing">GSAP</text><rect x="1835.5" y="17.5" width="5" height="5" rx="1" transform="rotate(45 1838 20)" fill="#C084FC" opacity=".9"/><text x="1868" y="24.5" textLength="56" lengthAdjust="spacing">OPENAI</text><rect x="1951.5" y="17.5" width="5" height="5" rx="1" transform="rotate(45 1954 20)" fill="#F9A8D4" opacity=".9"/><text x="1984" y="24.5" textLength="121" lengthAdjust="spacing">RAG PIPELINES</text><rect x="2132.5" y="17.5" width="5" height="5" rx="1" transform="rotate(45 2135 20)" fill="#22D3EE" opacity=".9"/><text x="2165" y="24.5" textLength="28" lengthAdjust="spacing">N8N</text><rect x="2220.5" y="17.5" width="5" height="5" rx="1" transform="rotate(45 2223 20)" fill="#818CF8" opacity=".9"/><text x="2253" y="24.5" textLength="74" lengthAdjust="spacing">SUPABASE</text><rect x="2354.5" y="17.5" width="5" height="5" rx="1" transform="rotate(45 2357 20)" fill="#C084FC" opacity=".9"/><text x="2387" y="24.5" textLength="74" lengthAdjust="spacing">FIREBASE</text><rect x="2488.5" y="17.5" width="5" height="5" rx="1" transform="rotate(45 2491 20)" fill="#F9A8D4" opacity=".9"/><text x="2521" y="24.5" textLength="74" lengthAdjust="spacing">TAILWIND</text><rect x="2622.5" y="17.5" width="5" height="5" rx="1" transform="rotate(45 2625 20)" fill="#22D3EE" opacity=".9"/><text x="2655" y="24.5" textLength="28" lengthAdjust="spacing">VUE</text><rect x="2710.5" y="17.5" width="5" height="5" rx="1" transform="rotate(45 2713 20)" fill="#818CF8" opacity=".9"/><text x="2743" y="24.5" textLength="65" lengthAdjust="spacing">MONGODB</text><rect x="2835.5" y="17.5" width="5" height="5" rx="1" transform="rotate(45 2838 20)" fill="#C084FC" opacity=".9"/><text x="2868" y="24.5" textLength="47" lengthAdjust="spacing">UNITY</text><rect x="2942.5" y="17.5" width="5" height="5" rx="1" transform="rotate(45 2945 20)" fill="#F9A8D4" opacity=".9"/><text x="2975" y="24.5" textLength="47" lengthAdjust="spacing">FIGMA</text><rect x="3049.5" y="17.5" width="5" height="5" rx="1" transform="rotate(45 3052 20)" fill="#22D3EE" opacity=".9"/></g></g></g></svg>
